<svg xmlns="http://www.w3.org/2000/svg" width="760" height="380" viewBox="0 0 760 380">
  <rect width="760" height="380" fill="white"/>
  <text x="60" y="22" font-family="Arial" font-size="16">BC-CI II: channel_merger</text>
  <line x1="60" y1="290" x2="680" y2="290" stroke="black"/>
  <line x1="60" y1="30" x2="60" y2="290" stroke="black"/>
  <line x1="60" y1="257.5" x2="680" y2="257.5" stroke="#777" stroke-dasharray="4 4"/>
  <polyline points="60.0,51.7 66.2,56.0 72.4,60.3 78.6,64.7 84.8,69.0 91.0,73.3 97.2,77.7 103.4,82.0 109.6,86.3 115.8,90.7 122.0,95.0 128.2,99.3 134.4,103.7 140.6,108.0 146.8,112.3 153.0,116.7 159.2,121.0 165.4,125.3 171.6,129.7 177.8,134.0 184.0,138.3 190.2,142.7 196.4,147.0 202.6,151.3 208.8,155.7 215.0,160.0 221.2,164.3 227.4,168.7 233.6,173.0 239.8,177.3 246.0,181.7 252.2,186.0 258.4,190.3 264.6,194.7 270.8,199.0 277.0,203.3 283.2,207.7 289.4,212.0 295.6,216.3 301.8,220.7 308.0,225.0 314.2,229.3 320.4,233.7 326.6,238.0 332.8,242.3 339.0,246.7 345.2,251.0 351.4,255.3 357.6,259.7 363.8,264.0 370.0,268.3 376.2,264.0 382.4,259.7 388.6,255.3 394.8,251.0 401.0,246.7 407.2,242.3 413.4,238.0 419.6,233.7 425.8,229.3 432.0,225.0 438.2,220.7 444.4,216.3 450.6,212.0 456.8,207.7 463.0,203.3 469.2,199.0 475.4,194.7 481.6,190.3 487.8,186.0 494.0,181.7 500.2,177.3 506.4,173.0 512.6,168.7 518.8,164.3 525.0,160.0 531.2,155.7 537.4,151.3 543.6,147.0 549.8,142.7 556.0,138.3 562.2,134.0 568.4,129.7 574.6,125.3 580.8,121.0 587.0,116.7 593.2,112.3 599.4,108.0 605.6,103.7 611.8,99.3 618.0,95.0 624.2,90.7 630.4,86.3 636.6,82.0 642.8,77.7 649.0,73.3 655.2,69.0 661.4,64.7 667.6,60.3 673.8,56.0 680.0,51.7" fill="none" stroke="#1f77b4" stroke-width="3"/>
  <polyline points="60.0,170.8 66.2,170.8 72.4,170.8 78.6,170.8 84.8,170.8 91.0,170.8 97.2,170.8 103.4,170.8 109.6,170.8 115.8,170.8 122.0,170.8 128.2,170.8 134.4,170.8 140.6,170.8 146.8,170.8 153.0,170.8 159.2,170.8 165.4,170.8 171.6,170.8 177.8,170.8 184.0,170.8 190.2,170.8 196.4,170.8 202.6,170.8 208.8,170.8 215.0,170.8 221.2,170.8 227.4,170.8 233.6,170.8 239.8,170.8 246.0,170.8 252.2,170.8 258.4,170.8 264.6,170.8 270.8,170.8 277.0,170.8 283.2,170.8 289.4,170.8 295.6,170.8 301.8,170.8 308.0,170.8 314.2,170.8 320.4,170.8 326.6,170.8 332.8,170.8 339.0,170.8 345.2,170.8 351.4,170.8 357.6,170.8 363.8,170.8 370.0,170.8 376.2,170.8 382.4,170.8 388.6,170.8 394.8,170.8 401.0,170.8 407.2,170.8 413.4,170.8 419.6,170.8 425.8,170.8 432.0,170.8 438.2,170.8 444.4,170.8 450.6,170.8 456.8,170.8 463.0,170.8 469.2,170.8 475.4,170.8 481.6,170.8 487.8,170.8 494.0,170.8 500.2,170.8 506.4,170.8 512.6,170.8 518.8,170.8 525.0,170.8 531.2,170.8 537.4,170.8 543.6,170.8 549.8,170.8 556.0,170.8 562.2,170.8 568.4,170.8 574.6,170.8 580.8,170.8 587.0,170.8 593.2,170.8 599.4,170.8 605.6,170.8 611.8,170.8 618.0,170.8 624.2,170.8 630.4,170.8 636.6,170.8 642.8,170.8 649.0,170.8 655.2,170.8 661.4,170.8 667.6,170.8 673.8,170.8 680.0,170.8" fill="none" stroke="#d62728" stroke-width="3"/>
  <text x="60" y="335" font-family="Arial" font-size="13">blue: spectral margin g_a^tau(B(u))-eta</text>
  <text x="60" y="355" font-family="Arial" font-size="13">red: readout margin ||R_a(u)||-delta_read</text>
</svg>
