<svg xmlns="http://www.w3.org/2000/svg" width="760" height="380" viewBox="0 0 760 380">
  <rect width="760" height="380" fill="white"/>
  <text x="60" y="22" font-family="Arial" font-size="16">BC-CI II: readout_below_threshold</text>
  <line x1="60" y1="290" x2="680" y2="290" stroke="black"/>
  <line x1="60" y1="30" x2="60" y2="290" stroke="black"/>
  <line x1="60" y1="200.3" x2="680" y2="200.3" stroke="#777" stroke-dasharray="4 4"/>
  <polyline points="60.0,65.9 66.2,65.7 72.4,65.5 78.6,65.3 84.8,65.1 91.0,65.0 97.2,64.8 103.4,64.6 109.6,64.4 115.8,64.2 122.0,64.1 128.2,63.9 134.4,63.7 140.6,63.5 146.8,63.4 153.0,63.2 159.2,63.0 165.4,62.8 171.6,62.6 177.8,62.5 184.0,62.3 190.2,62.1 196.4,61.9 202.6,61.7 208.8,61.6 215.0,61.4 221.2,61.2 227.4,61.0 233.6,60.8 239.8,60.7 246.0,60.5 252.2,60.3 258.4,60.1 264.6,59.9 270.8,59.8 277.0,59.6 283.2,59.4 289.4,59.2 295.6,59.0 301.8,58.9 308.0,58.7 314.2,58.5 320.4,58.3 326.6,58.2 332.8,58.0 339.0,57.8 345.2,57.6 351.4,57.4 357.6,57.3 363.8,57.1 370.0,56.9 376.2,56.7 382.4,56.5 388.6,56.4 394.8,56.2 401.0,56.0 407.2,55.8 413.4,55.6 419.6,55.5 425.8,55.3 432.0,55.1 438.2,54.9 444.4,54.7 450.6,54.6 456.8,54.4 463.0,54.2 469.2,54.0 475.4,53.8 481.6,53.7 487.8,53.5 494.0,53.3 500.2,53.1 506.4,53.0 512.6,52.8 518.8,52.6 525.0,52.4 531.2,52.2 537.4,52.1 543.6,51.9 549.8,51.7 556.0,51.5 562.2,51.3 568.4,51.2 574.6,51.0 580.8,50.8 587.0,50.6 593.2,50.4 599.4,50.3 605.6,50.1 611.8,49.9 618.0,49.7 624.2,49.5 630.4,49.4 636.6,49.2 642.8,49.0 649.0,48.8 655.2,48.6 661.4,48.5 667.6,48.3 673.8,48.1 680.0,47.9" fill="none" stroke="#1f77b4" stroke-width="3"/>
  <polyline points="60.0,92.8 66.2,94.6 72.4,96.3 78.6,98.1 84.8,99.9 91.0,101.7 97.2,103.5 103.4,105.3 109.6,107.1 115.8,108.9 122.0,110.7 128.2,112.5 134.4,114.3 140.6,116.1 146.8,117.9 153.0,119.7 159.2,121.4 165.4,123.2 171.6,125.0 177.8,126.8 184.0,128.6 190.2,130.4 196.4,132.2 202.6,134.0 208.8,135.8 215.0,137.6 221.2,139.4 227.4,141.2 233.6,143.0 239.8,144.8 246.0,146.6 252.2,148.3 258.4,150.1 264.6,151.9 270.8,153.7 277.0,155.5 283.2,157.3 289.4,159.1 295.6,160.9 301.8,162.7 308.0,164.5 314.2,166.3 320.4,168.1 326.6,169.9 332.8,171.7 339.0,173.4 345.2,175.2 351.4,177.0 357.6,178.8 363.8,180.6 370.0,182.4 376.2,184.2 382.4,186.0 388.6,187.8 394.8,189.6 401.0,191.4 407.2,193.2 413.4,195.0 419.6,196.8 425.8,198.6 432.0,200.3 438.2,202.1 444.4,203.9 450.6,205.7 456.8,207.5 463.0,209.3 469.2,211.1 475.4,212.9 481.6,214.7 487.8,216.5 494.0,218.3 500.2,220.1 506.4,221.9 512.6,223.7 518.8,225.4 525.0,227.2 531.2,229.0 537.4,230.8 543.6,232.6 549.8,234.4 556.0,236.2 562.2,238.0 568.4,239.8 574.6,241.6 580.8,243.4 587.0,245.2 593.2,247.0 599.4,248.8 605.6,250.6 611.8,252.3 618.0,254.1 624.2,255.9 630.4,257.7 636.6,259.5 642.8,261.3 649.0,263.1 655.2,264.9 661.4,266.7 667.6,268.5 673.8,270.3 680.0,272.1" fill="none" stroke="#d62728" stroke-width="3"/>
  <text x="60" y="335" font-family="Arial" font-size="13">blue: spectral margin g_a^tau(B(u))-eta</text>
  <text x="60" y="355" font-family="Arial" font-size="13">red: readout margin ||R_a(u)||-delta_read</text>
</svg>
