<svg xmlns="http://www.w3.org/2000/svg" width="760" height="380" viewBox="0 0 760 380">
  <rect width="760" height="380" fill="white"/>
  <text x="60" y="22" font-family="Arial" font-size="16">BC-CI II: reset_interrupted</text>
  <line x1="60" y1="290" x2="680" y2="290" stroke="black"/>
  <line x1="60" y1="30" x2="60" y2="290" stroke="black"/>
  <line x1="60" y1="233.5" x2="680" y2="233.5" stroke="#777" stroke-dasharray="4 4"/>
  <polyline points="60.0,52.6 66.2,52.6 72.4,52.6 78.6,52.6 84.8,52.6 91.0,52.6 97.2,52.6 103.4,52.6 109.6,52.6 115.8,52.6 122.0,52.6 128.2,52.6 134.4,52.6 140.6,52.6 146.8,52.6 153.0,52.6 159.2,52.6 165.4,52.6 171.6,52.6 177.8,52.6 184.0,52.6 190.2,52.6 196.4,52.6 202.6,52.6 208.8,52.6 215.0,52.6 221.2,52.6 227.4,52.6 233.6,52.6 239.8,52.6 246.0,52.6 252.2,52.6 258.4,52.6 264.6,52.6 270.8,52.6 277.0,52.6 283.2,52.6 289.4,52.6 295.6,52.6 301.8,52.6 308.0,52.6 314.2,52.6 320.4,52.6 326.6,52.6 332.8,52.6 339.0,267.4 345.2,267.4 351.4,267.4 357.6,267.4 363.8,267.4 370.0,267.4 376.2,267.4 382.4,267.4 388.6,267.4 394.8,267.4 401.0,267.4 407.2,52.6 413.4,52.6 419.6,52.6 425.8,52.6 432.0,52.6 438.2,52.6 444.4,52.6 450.6,52.6 456.8,52.6 463.0,52.6 469.2,52.6 475.4,52.6 481.6,52.6 487.8,52.6 494.0,52.6 500.2,52.6 506.4,52.6 512.6,52.6 518.8,52.6 525.0,52.6 531.2,52.6 537.4,52.6 543.6,52.6 549.8,52.6 556.0,52.6 562.2,52.6 568.4,52.6 574.6,52.6 580.8,52.6 587.0,52.6 593.2,52.6 599.4,52.6 605.6,52.6 611.8,52.6 618.0,52.6 624.2,52.6 630.4,52.6 636.6,52.6 642.8,52.6 649.0,52.6 655.2,52.6 661.4,52.6 667.6,52.6 673.8,52.6 680.0,52.6" fill="none" stroke="#1f77b4" stroke-width="3"/>
  <polyline points="60.0,165.7 66.2,165.7 72.4,165.7 78.6,165.7 84.8,165.7 91.0,165.7 97.2,165.7 103.4,165.7 109.6,165.7 115.8,165.7 122.0,165.7 128.2,165.7 134.4,165.7 140.6,165.7 146.8,165.7 153.0,165.7 159.2,165.7 165.4,165.7 171.6,165.7 177.8,165.7 184.0,165.7 190.2,165.7 196.4,165.7 202.6,165.7 208.8,165.7 215.0,165.7 221.2,165.7 227.4,165.7 233.6,165.7 239.8,165.7 246.0,165.7 252.2,165.7 258.4,165.7 264.6,165.7 270.8,165.7 277.0,165.7 283.2,165.7 289.4,165.7 295.6,165.7 301.8,165.7 308.0,165.7 314.2,165.7 320.4,165.7 326.6,165.7 332.8,165.7 339.0,165.7 345.2,165.7 351.4,165.7 357.6,165.7 363.8,165.7 370.0,165.7 376.2,165.7 382.4,165.7 388.6,165.7 394.8,165.7 401.0,165.7 407.2,165.7 413.4,165.7 419.6,165.7 425.8,165.7 432.0,165.7 438.2,165.7 444.4,165.7 450.6,165.7 456.8,165.7 463.0,165.7 469.2,165.7 475.4,165.7 481.6,165.7 487.8,165.7 494.0,165.7 500.2,165.7 506.4,165.7 512.6,165.7 518.8,165.7 525.0,165.7 531.2,165.7 537.4,165.7 543.6,165.7 549.8,165.7 556.0,165.7 562.2,165.7 568.4,165.7 574.6,165.7 580.8,165.7 587.0,165.7 593.2,165.7 599.4,165.7 605.6,165.7 611.8,165.7 618.0,165.7 624.2,165.7 630.4,165.7 636.6,165.7 642.8,165.7 649.0,165.7 655.2,165.7 661.4,165.7 667.6,165.7 673.8,165.7 680.0,165.7" fill="none" stroke="#d62728" stroke-width="3"/>
  <text x="60" y="335" font-family="Arial" font-size="13">blue: spectral margin g_a^tau(B(u))-eta</text>
  <text x="60" y="355" font-family="Arial" font-size="13">red: readout margin ||R_a(u)||-delta_read</text>
</svg>
