<svg xmlns="http://www.w3.org/2000/svg" width="760" height="380" viewBox="0 0 760 380">
  <rect width="760" height="380" fill="white"/>
  <text x="60" y="22" font-family="Arial" font-size="16">BC-CI II: stable_channel</text>
  <line x1="60" y1="290" x2="680" y2="290" stroke="black"/>
  <line x1="60" y1="30" x2="60" y2="290" stroke="black"/>
  <line x1="60" y1="265.2" x2="680" y2="265.2" stroke="#777" stroke-dasharray="4 4"/>
  <polyline points="60.0,79.5 66.2,79.3 72.4,79.0 78.6,78.8 84.8,78.5 91.0,78.3 97.2,78.0 103.4,77.8 109.6,77.5 115.8,77.3 122.0,77.0 128.2,76.8 134.4,76.6 140.6,76.3 146.8,76.1 153.0,75.8 159.2,75.6 165.4,75.3 171.6,75.1 177.8,74.8 184.0,74.6 190.2,74.3 196.4,74.1 202.6,73.8 208.8,73.6 215.0,73.3 221.2,73.1 227.4,72.8 233.6,72.6 239.8,72.3 246.0,72.1 252.2,71.8 258.4,71.6 264.6,71.4 270.8,71.1 277.0,70.9 283.2,70.6 289.4,70.4 295.6,70.1 301.8,69.9 308.0,69.6 314.2,69.4 320.4,69.1 326.6,68.9 332.8,68.6 339.0,68.4 345.2,68.1 351.4,67.9 357.6,67.6 363.8,67.4 370.0,67.1 376.2,66.9 382.4,66.6 388.6,66.4 394.8,66.2 401.0,65.9 407.2,65.7 413.4,65.4 419.6,65.2 425.8,64.9 432.0,64.7 438.2,64.4 444.4,64.2 450.6,63.9 456.8,63.7 463.0,63.4 469.2,63.2 475.4,62.9 481.6,62.7 487.8,62.4 494.0,62.2 500.2,61.9 506.4,61.7 512.6,61.4 518.8,61.2 525.0,61.0 531.2,60.7 537.4,60.5 543.6,60.2 549.8,60.0 556.0,59.7 562.2,59.5 568.4,59.2 574.6,59.0 580.8,58.7 587.0,58.5 593.2,58.2 599.4,58.0 605.6,57.7 611.8,57.5 618.0,57.2 624.2,57.0 630.4,56.7 636.6,56.5 642.8,56.2 649.0,56.0 655.2,55.8 661.4,55.5 667.6,55.3 673.8,55.0 680.0,54.8" fill="none" stroke="#1f77b4" stroke-width="3"/>
  <polyline points="60.0,166.2 66.2,165.8 72.4,165.4 78.6,165.0 84.8,164.6 91.0,164.3 97.2,163.9 103.4,163.5 109.6,163.1 115.8,162.7 122.0,162.4 128.2,162.0 134.4,161.6 140.6,161.3 146.8,160.9 153.0,160.6 159.2,160.2 165.4,159.9 171.6,159.6 177.8,159.2 184.0,158.9 190.2,158.6 196.4,158.3 202.6,158.0 208.8,157.7 215.0,157.4 221.2,157.2 227.4,156.9 233.6,156.7 239.8,156.4 246.0,156.2 252.2,156.0 258.4,155.7 264.6,155.5 270.8,155.3 277.0,155.2 283.2,155.0 289.4,154.8 295.6,154.7 301.8,154.5 308.0,154.4 314.2,154.3 320.4,154.2 326.6,154.1 332.8,154.0 339.0,154.0 345.2,153.9 351.4,153.9 357.6,153.8 363.8,153.8 370.0,153.8 376.2,153.8 382.4,153.8 388.6,153.9 394.8,153.9 401.0,154.0 407.2,154.0 413.4,154.1 419.6,154.2 425.8,154.3 432.0,154.4 438.2,154.5 444.4,154.7 450.6,154.8 456.8,155.0 463.0,155.2 469.2,155.3 475.4,155.5 481.6,155.7 487.8,156.0 494.0,156.2 500.2,156.4 506.4,156.7 512.6,156.9 518.8,157.2 525.0,157.4 531.2,157.7 537.4,158.0 543.6,158.3 549.8,158.6 556.0,158.9 562.2,159.2 568.4,159.6 574.6,159.9 580.8,160.2 587.0,160.6 593.2,160.9 599.4,161.3 605.6,161.6 611.8,162.0 618.0,162.4 624.2,162.7 630.4,163.1 636.6,163.5 642.8,163.9 649.0,164.3 655.2,164.6 661.4,165.0 667.6,165.4 673.8,165.8 680.0,166.2" fill="none" stroke="#d62728" stroke-width="3"/>
  <text x="60" y="335" font-family="Arial" font-size="13">blue: spectral margin g_a^tau(B(u))-eta</text>
  <text x="60" y="355" font-family="Arial" font-size="13">red: readout margin ||R_a(u)||-delta_read</text>
</svg>
