<svg xmlns="http://www.w3.org/2000/svg" width="900" height="248" viewBox="0 0 900 248">
<rect width="100%" height="100%" fill="white"/>
<text x="40" y="30" font-family="Arial" font-size="18">BC-CI II status timeline</text>
<text x="40" y="80" font-family="Arial" font-size="13">channel_merger</text>
<rect x="260.0" y="60" width="6" height="24" fill="#8c564b"/>
<rect x="265.9" y="60" width="6" height="24" fill="#8c564b"/>
<rect x="271.8" y="60" width="6" height="24" fill="#8c564b"/>
<rect x="277.7" y="60" width="6" height="24" fill="#8c564b"/>
<rect x="283.6" y="60" width="6" height="24" fill="#8c564b"/>
<rect x="289.5" y="60" width="6" height="24" fill="#8c564b"/>
<rect x="295.4" y="60" width="6" height="24" fill="#8c564b"/>
<rect x="301.3" y="60" width="6" height="24" fill="#8c564b"/>
<rect x="307.2" y="60" width="6" height="24" fill="#8c564b"/>
<rect x="313.1" y="60" width="6" height="24" fill="#8c564b"/>
<rect x="319.0" y="60" width="6" height="24" fill="#8c564b"/>
<rect x="324.9" y="60" width="6" height="24" fill="#8c564b"/>
<rect x="330.8" y="60" width="6" height="24" fill="#8c564b"/>
<rect x="336.7" y="60" width="6" height="24" fill="#8c564b"/>
<rect x="342.6" y="60" width="6" height="24" fill="#8c564b"/>
<rect x="348.5" y="60" width="6" height="24" fill="#8c564b"/>
<rect x="354.4" y="60" width="6" height="24" fill="#8c564b"/>
<rect x="360.3" y="60" width="6" height="24" fill="#8c564b"/>
<rect x="366.2" y="60" width="6" height="24" fill="#8c564b"/>
<rect x="372.1" y="60" width="6" height="24" fill="#8c564b"/>
<rect x="378.0" y="60" width="6" height="24" fill="#8c564b"/>
<rect x="383.9" y="60" width="6" height="24" fill="#8c564b"/>
<rect x="389.8" y="60" width="6" height="24" fill="#8c564b"/>
<rect x="395.7" y="60" width="6" height="24" fill="#8c564b"/>
<rect x="401.6" y="60" width="6" height="24" fill="#8c564b"/>
<rect x="407.5" y="60" width="6" height="24" fill="#8c564b"/>
<rect x="413.4" y="60" width="6" height="24" fill="#8c564b"/>
<rect x="419.3" y="60" width="6" height="24" fill="#8c564b"/>
<rect x="425.2" y="60" width="6" height="24" fill="#8c564b"/>
<rect x="431.1" y="60" width="6" height="24" fill="#8c564b"/>
<rect x="437.0" y="60" width="6" height="24" fill="#8c564b"/>
<rect x="442.9" y="60" width="6" height="24" fill="#8c564b"/>
<rect x="448.8" y="60" width="6" height="24" fill="#8c564b"/>
<rect x="454.7" y="60" width="6" height="24" fill="#8c564b"/>
<rect x="460.6" y="60" width="6" height="24" fill="#8c564b"/>
<rect x="466.5" y="60" width="6" height="24" fill="#8c564b"/>
<rect x="472.4" y="60" width="6" height="24" fill="#8c564b"/>
<rect x="478.3" y="60" width="6" height="24" fill="#8c564b"/>
<rect x="484.2" y="60" width="6" height="24" fill="#8c564b"/>
<rect x="490.1" y="60" width="6" height="24" fill="#8c564b"/>
<rect x="496.0" y="60" width="6" height="24" fill="#8c564b"/>
<rect x="501.9" y="60" width="6" height="24" fill="#8c564b"/>
<rect x="507.8" y="60" width="6" height="24" fill="#8c564b"/>
<rect x="513.7" y="60" width="6" height="24" fill="#8c564b"/>
<rect x="519.6" y="60" width="6" height="24" fill="#8c564b"/>
<rect x="525.5" y="60" width="6" height="24" fill="#8c564b"/>
<rect x="531.4" y="60" width="6" height="24" fill="#8c564b"/>
<rect x="537.3" y="60" width="6" height="24" fill="#8c564b"/>
<rect x="543.2" y="60" width="6" height="24" fill="#9467bd"/>
<rect x="549.1" y="60" width="6" height="24" fill="#9467bd"/>
<rect x="555.0" y="60" width="6" height="24" fill="#9467bd"/>
<rect x="560.9" y="60" width="6" height="24" fill="#9467bd"/>
<rect x="566.8" y="60" width="6" height="24" fill="#9467bd"/>
<rect x="572.7" y="60" width="6" height="24" fill="#8c564b"/>
<rect x="578.6" y="60" width="6" height="24" fill="#8c564b"/>
<rect x="584.5" y="60" width="6" height="24" fill="#8c564b"/>
<rect x="590.4" y="60" width="6" height="24" fill="#8c564b"/>
<rect x="596.3" y="60" width="6" height="24" fill="#8c564b"/>
<rect x="602.2" y="60" width="6" height="24" fill="#8c564b"/>
<rect x="608.1" y="60" width="6" height="24" fill="#8c564b"/>
<rect x="614.0" y="60" width="6" height="24" fill="#8c564b"/>
<rect x="619.9" y="60" width="6" height="24" fill="#8c564b"/>
<rect x="625.8" y="60" width="6" height="24" fill="#8c564b"/>
<rect x="631.7" y="60" width="6" height="24" fill="#8c564b"/>
<rect x="637.6" y="60" width="6" height="24" fill="#8c564b"/>
<rect x="643.5" y="60" width="6" height="24" fill="#8c564b"/>
<rect x="649.4" y="60" width="6" height="24" fill="#8c564b"/>
<rect x="655.3" y="60" width="6" height="24" fill="#8c564b"/>
<rect x="661.2" y="60" width="6" height="24" fill="#8c564b"/>
<rect x="667.1" y="60" width="6" height="24" fill="#8c564b"/>
<rect x="673.0" y="60" width="6" height="24" fill="#8c564b"/>
<rect x="678.9" y="60" width="6" height="24" fill="#8c564b"/>
<rect x="684.8" y="60" width="6" height="24" fill="#8c564b"/>
<rect x="690.7" y="60" width="6" height="24" fill="#8c564b"/>
<rect x="696.6" y="60" width="6" height="24" fill="#8c564b"/>
<rect x="702.5" y="60" width="6" height="24" fill="#8c564b"/>
<rect x="708.4" y="60" width="6" height="24" fill="#8c564b"/>
<rect x="714.3" y="60" width="6" height="24" fill="#8c564b"/>
<rect x="720.2" y="60" width="6" height="24" fill="#8c564b"/>
<rect x="726.1" y="60" width="6" height="24" fill="#8c564b"/>
<rect x="732.0" y="60" width="6" height="24" fill="#8c564b"/>
<rect x="737.9" y="60" width="6" height="24" fill="#8c564b"/>
<rect x="743.8" y="60" width="6" height="24" fill="#8c564b"/>
<rect x="749.7" y="60" width="6" height="24" fill="#8c564b"/>
<rect x="755.6" y="60" width="6" height="24" fill="#8c564b"/>
<rect x="761.5" y="60" width="6" height="24" fill="#8c564b"/>
<rect x="767.4" y="60" width="6" height="24" fill="#8c564b"/>
<rect x="773.3" y="60" width="6" height="24" fill="#8c564b"/>
<rect x="779.2" y="60" width="6" height="24" fill="#8c564b"/>
<rect x="785.1" y="60" width="6" height="24" fill="#8c564b"/>
<rect x="791.0" y="60" width="6" height="24" fill="#8c564b"/>
<rect x="796.9" y="60" width="6" height="24" fill="#8c564b"/>
<rect x="802.8" y="60" width="6" height="24" fill="#8c564b"/>
<rect x="808.7" y="60" width="6" height="24" fill="#8c564b"/>
<rect x="814.6" y="60" width="6" height="24" fill="#8c564b"/>
<rect x="820.5" y="60" width="6" height="24" fill="#8c564b"/>
<rect x="826.4" y="60" width="6" height="24" fill="#8c564b"/>
<rect x="832.3" y="60" width="6" height="24" fill="#8c564b"/>
<rect x="838.2" y="60" width="6" height="24" fill="#8c564b"/>
<rect x="844.1" y="60" width="6" height="24" fill="#8c564b"/>
<rect x="850.0" y="60" width="6" height="24" fill="#8c564b"/>
<text x="40" y="122" font-family="Arial" font-size="13">readout_below_threshold</text>
<rect x="260.0" y="102" width="6" height="24" fill="#2ca02c"/>
<rect x="265.9" y="102" width="6" height="24" fill="#2ca02c"/>
<rect x="271.8" y="102" width="6" height="24" fill="#2ca02c"/>
<rect x="277.7" y="102" width="6" height="24" fill="#2ca02c"/>
<rect x="283.6" y="102" width="6" height="24" fill="#2ca02c"/>
<rect x="289.5" y="102" width="6" height="24" fill="#2ca02c"/>
<rect x="295.4" y="102" width="6" height="24" fill="#2ca02c"/>
<rect x="301.3" y="102" width="6" height="24" fill="#2ca02c"/>
<rect x="307.2" y="102" width="6" height="24" fill="#2ca02c"/>
<rect x="313.1" y="102" width="6" height="24" fill="#2ca02c"/>
<rect x="319.0" y="102" width="6" height="24" fill="#2ca02c"/>
<rect x="324.9" y="102" width="6" height="24" fill="#2ca02c"/>
<rect x="330.8" y="102" width="6" height="24" fill="#2ca02c"/>
<rect x="336.7" y="102" width="6" height="24" fill="#2ca02c"/>
<rect x="342.6" y="102" width="6" height="24" fill="#2ca02c"/>
<rect x="348.5" y="102" width="6" height="24" fill="#2ca02c"/>
<rect x="354.4" y="102" width="6" height="24" fill="#2ca02c"/>
<rect x="360.3" y="102" width="6" height="24" fill="#2ca02c"/>
<rect x="366.2" y="102" width="6" height="24" fill="#2ca02c"/>
<rect x="372.1" y="102" width="6" height="24" fill="#2ca02c"/>
<rect x="378.0" y="102" width="6" height="24" fill="#2ca02c"/>
<rect x="383.9" y="102" width="6" height="24" fill="#2ca02c"/>
<rect x="389.8" y="102" width="6" height="24" fill="#2ca02c"/>
<rect x="395.7" y="102" width="6" height="24" fill="#2ca02c"/>
<rect x="401.6" y="102" width="6" height="24" fill="#2ca02c"/>
<rect x="407.5" y="102" width="6" height="24" fill="#2ca02c"/>
<rect x="413.4" y="102" width="6" height="24" fill="#2ca02c"/>
<rect x="419.3" y="102" width="6" height="24" fill="#2ca02c"/>
<rect x="425.2" y="102" width="6" height="24" fill="#2ca02c"/>
<rect x="431.1" y="102" width="6" height="24" fill="#2ca02c"/>
<rect x="437.0" y="102" width="6" height="24" fill="#2ca02c"/>
<rect x="442.9" y="102" width="6" height="24" fill="#2ca02c"/>
<rect x="448.8" y="102" width="6" height="24" fill="#2ca02c"/>
<rect x="454.7" y="102" width="6" height="24" fill="#2ca02c"/>
<rect x="460.6" y="102" width="6" height="24" fill="#2ca02c"/>
<rect x="466.5" y="102" width="6" height="24" fill="#2ca02c"/>
<rect x="472.4" y="102" width="6" height="24" fill="#2ca02c"/>
<rect x="478.3" y="102" width="6" height="24" fill="#2ca02c"/>
<rect x="484.2" y="102" width="6" height="24" fill="#2ca02c"/>
<rect x="490.1" y="102" width="6" height="24" fill="#2ca02c"/>
<rect x="496.0" y="102" width="6" height="24" fill="#2ca02c"/>
<rect x="501.9" y="102" width="6" height="24" fill="#2ca02c"/>
<rect x="507.8" y="102" width="6" height="24" fill="#2ca02c"/>
<rect x="513.7" y="102" width="6" height="24" fill="#2ca02c"/>
<rect x="519.6" y="102" width="6" height="24" fill="#2ca02c"/>
<rect x="525.5" y="102" width="6" height="24" fill="#2ca02c"/>
<rect x="531.4" y="102" width="6" height="24" fill="#2ca02c"/>
<rect x="537.3" y="102" width="6" height="24" fill="#2ca02c"/>
<rect x="543.2" y="102" width="6" height="24" fill="#2ca02c"/>
<rect x="549.1" y="102" width="6" height="24" fill="#2ca02c"/>
<rect x="555.0" y="102" width="6" height="24" fill="#2ca02c"/>
<rect x="560.9" y="102" width="6" height="24" fill="#2ca02c"/>
<rect x="566.8" y="102" width="6" height="24" fill="#2ca02c"/>
<rect x="572.7" y="102" width="6" height="24" fill="#2ca02c"/>
<rect x="578.6" y="102" width="6" height="24" fill="#2ca02c"/>
<rect x="584.5" y="102" width="6" height="24" fill="#2ca02c"/>
<rect x="590.4" y="102" width="6" height="24" fill="#2ca02c"/>
<rect x="596.3" y="102" width="6" height="24" fill="#2ca02c"/>
<rect x="602.2" y="102" width="6" height="24" fill="#2ca02c"/>
<rect x="608.1" y="102" width="6" height="24" fill="#2ca02c"/>
<rect x="614.0" y="102" width="6" height="24" fill="#ff7f0e"/>
<rect x="619.9" y="102" width="6" height="24" fill="#ff7f0e"/>
<rect x="625.8" y="102" width="6" height="24" fill="#ff7f0e"/>
<rect x="631.7" y="102" width="6" height="24" fill="#ff7f0e"/>
<rect x="637.6" y="102" width="6" height="24" fill="#ff7f0e"/>
<rect x="643.5" y="102" width="6" height="24" fill="#ff7f0e"/>
<rect x="649.4" y="102" width="6" height="24" fill="#ff7f0e"/>
<rect x="655.3" y="102" width="6" height="24" fill="#ff7f0e"/>
<rect x="661.2" y="102" width="6" height="24" fill="#ff7f0e"/>
<rect x="667.1" y="102" width="6" height="24" fill="#ff7f0e"/>
<rect x="673.0" y="102" width="6" height="24" fill="#ff7f0e"/>
<rect x="678.9" y="102" width="6" height="24" fill="#ff7f0e"/>
<rect x="684.8" y="102" width="6" height="24" fill="#ff7f0e"/>
<rect x="690.7" y="102" width="6" height="24" fill="#ff7f0e"/>
<rect x="696.6" y="102" width="6" height="24" fill="#ff7f0e"/>
<rect x="702.5" y="102" width="6" height="24" fill="#ff7f0e"/>
<rect x="708.4" y="102" width="6" height="24" fill="#ff7f0e"/>
<rect x="714.3" y="102" width="6" height="24" fill="#ff7f0e"/>
<rect x="720.2" y="102" width="6" height="24" fill="#ff7f0e"/>
<rect x="726.1" y="102" width="6" height="24" fill="#ff7f0e"/>
<rect x="732.0" y="102" width="6" height="24" fill="#ff7f0e"/>
<rect x="737.9" y="102" width="6" height="24" fill="#ff7f0e"/>
<rect x="743.8" y="102" width="6" height="24" fill="#ff7f0e"/>
<rect x="749.7" y="102" width="6" height="24" fill="#ff7f0e"/>
<rect x="755.6" y="102" width="6" height="24" fill="#ff7f0e"/>
<rect x="761.5" y="102" width="6" height="24" fill="#ff7f0e"/>
<rect x="767.4" y="102" width="6" height="24" fill="#ff7f0e"/>
<rect x="773.3" y="102" width="6" height="24" fill="#ff7f0e"/>
<rect x="779.2" y="102" width="6" height="24" fill="#ff7f0e"/>
<rect x="785.1" y="102" width="6" height="24" fill="#ff7f0e"/>
<rect x="791.0" y="102" width="6" height="24" fill="#ff7f0e"/>
<rect x="796.9" y="102" width="6" height="24" fill="#ff7f0e"/>
<rect x="802.8" y="102" width="6" height="24" fill="#ff7f0e"/>
<rect x="808.7" y="102" width="6" height="24" fill="#ff7f0e"/>
<rect x="814.6" y="102" width="6" height="24" fill="#ff7f0e"/>
<rect x="820.5" y="102" width="6" height="24" fill="#ff7f0e"/>
<rect x="826.4" y="102" width="6" height="24" fill="#ff7f0e"/>
<rect x="832.3" y="102" width="6" height="24" fill="#ff7f0e"/>
<rect x="838.2" y="102" width="6" height="24" fill="#ff7f0e"/>
<rect x="844.1" y="102" width="6" height="24" fill="#ff7f0e"/>
<rect x="850.0" y="102" width="6" height="24" fill="#ff7f0e"/>
<text x="40" y="164" font-family="Arial" font-size="13">reset_interrupted</text>
<rect x="260.0" y="144" width="6" height="24" fill="#2ca02c"/>
<rect x="265.9" y="144" width="6" height="24" fill="#2ca02c"/>
<rect x="271.8" y="144" width="6" height="24" fill="#2ca02c"/>
<rect x="277.7" y="144" width="6" height="24" fill="#2ca02c"/>
<rect x="283.6" y="144" width="6" height="24" fill="#2ca02c"/>
<rect x="289.5" y="144" width="6" height="24" fill="#2ca02c"/>
<rect x="295.4" y="144" width="6" height="24" fill="#2ca02c"/>
<rect x="301.3" y="144" width="6" height="24" fill="#2ca02c"/>
<rect x="307.2" y="144" width="6" height="24" fill="#2ca02c"/>
<rect x="313.1" y="144" width="6" height="24" fill="#2ca02c"/>
<rect x="319.0" y="144" width="6" height="24" fill="#2ca02c"/>
<rect x="324.9" y="144" width="6" height="24" fill="#2ca02c"/>
<rect x="330.8" y="144" width="6" height="24" fill="#2ca02c"/>
<rect x="336.7" y="144" width="6" height="24" fill="#2ca02c"/>
<rect x="342.6" y="144" width="6" height="24" fill="#2ca02c"/>
<rect x="348.5" y="144" width="6" height="24" fill="#2ca02c"/>
<rect x="354.4" y="144" width="6" height="24" fill="#2ca02c"/>
<rect x="360.3" y="144" width="6" height="24" fill="#2ca02c"/>
<rect x="366.2" y="144" width="6" height="24" fill="#2ca02c"/>
<rect x="372.1" y="144" width="6" height="24" fill="#2ca02c"/>
<rect x="378.0" y="144" width="6" height="24" fill="#2ca02c"/>
<rect x="383.9" y="144" width="6" height="24" fill="#2ca02c"/>
<rect x="389.8" y="144" width="6" height="24" fill="#2ca02c"/>
<rect x="395.7" y="144" width="6" height="24" fill="#2ca02c"/>
<rect x="401.6" y="144" width="6" height="24" fill="#2ca02c"/>
<rect x="407.5" y="144" width="6" height="24" fill="#2ca02c"/>
<rect x="413.4" y="144" width="6" height="24" fill="#2ca02c"/>
<rect x="419.3" y="144" width="6" height="24" fill="#2ca02c"/>
<rect x="425.2" y="144" width="6" height="24" fill="#2ca02c"/>
<rect x="431.1" y="144" width="6" height="24" fill="#2ca02c"/>
<rect x="437.0" y="144" width="6" height="24" fill="#2ca02c"/>
<rect x="442.9" y="144" width="6" height="24" fill="#2ca02c"/>
<rect x="448.8" y="144" width="6" height="24" fill="#2ca02c"/>
<rect x="454.7" y="144" width="6" height="24" fill="#2ca02c"/>
<rect x="460.6" y="144" width="6" height="24" fill="#2ca02c"/>
<rect x="466.5" y="144" width="6" height="24" fill="#2ca02c"/>
<rect x="472.4" y="144" width="6" height="24" fill="#2ca02c"/>
<rect x="478.3" y="144" width="6" height="24" fill="#2ca02c"/>
<rect x="484.2" y="144" width="6" height="24" fill="#2ca02c"/>
<rect x="490.1" y="144" width="6" height="24" fill="#2ca02c"/>
<rect x="496.0" y="144" width="6" height="24" fill="#2ca02c"/>
<rect x="501.9" y="144" width="6" height="24" fill="#2ca02c"/>
<rect x="507.8" y="144" width="6" height="24" fill="#2ca02c"/>
<rect x="513.7" y="144" width="6" height="24" fill="#2ca02c"/>
<rect x="519.6" y="144" width="6" height="24" fill="#2ca02c"/>
<rect x="525.5" y="144" width="6" height="24" fill="#9467bd"/>
<rect x="531.4" y="144" width="6" height="24" fill="#9467bd"/>
<rect x="537.3" y="144" width="6" height="24" fill="#9467bd"/>
<rect x="543.2" y="144" width="6" height="24" fill="#9467bd"/>
<rect x="549.1" y="144" width="6" height="24" fill="#9467bd"/>
<rect x="555.0" y="144" width="6" height="24" fill="#9467bd"/>
<rect x="560.9" y="144" width="6" height="24" fill="#9467bd"/>
<rect x="566.8" y="144" width="6" height="24" fill="#9467bd"/>
<rect x="572.7" y="144" width="6" height="24" fill="#9467bd"/>
<rect x="578.6" y="144" width="6" height="24" fill="#9467bd"/>
<rect x="584.5" y="144" width="6" height="24" fill="#9467bd"/>
<rect x="590.4" y="144" width="6" height="24" fill="#2ca02c"/>
<rect x="596.3" y="144" width="6" height="24" fill="#2ca02c"/>
<rect x="602.2" y="144" width="6" height="24" fill="#2ca02c"/>
<rect x="608.1" y="144" width="6" height="24" fill="#2ca02c"/>
<rect x="614.0" y="144" width="6" height="24" fill="#2ca02c"/>
<rect x="619.9" y="144" width="6" height="24" fill="#2ca02c"/>
<rect x="625.8" y="144" width="6" height="24" fill="#2ca02c"/>
<rect x="631.7" y="144" width="6" height="24" fill="#2ca02c"/>
<rect x="637.6" y="144" width="6" height="24" fill="#2ca02c"/>
<rect x="643.5" y="144" width="6" height="24" fill="#2ca02c"/>
<rect x="649.4" y="144" width="6" height="24" fill="#2ca02c"/>
<rect x="655.3" y="144" width="6" height="24" fill="#2ca02c"/>
<rect x="661.2" y="144" width="6" height="24" fill="#2ca02c"/>
<rect x="667.1" y="144" width="6" height="24" fill="#2ca02c"/>
<rect x="673.0" y="144" width="6" height="24" fill="#2ca02c"/>
<rect x="678.9" y="144" width="6" height="24" fill="#2ca02c"/>
<rect x="684.8" y="144" width="6" height="24" fill="#2ca02c"/>
<rect x="690.7" y="144" width="6" height="24" fill="#2ca02c"/>
<rect x="696.6" y="144" width="6" height="24" fill="#2ca02c"/>
<rect x="702.5" y="144" width="6" height="24" fill="#2ca02c"/>
<rect x="708.4" y="144" width="6" height="24" fill="#2ca02c"/>
<rect x="714.3" y="144" width="6" height="24" fill="#2ca02c"/>
<rect x="720.2" y="144" width="6" height="24" fill="#2ca02c"/>
<rect x="726.1" y="144" width="6" height="24" fill="#2ca02c"/>
<rect x="732.0" y="144" width="6" height="24" fill="#2ca02c"/>
<rect x="737.9" y="144" width="6" height="24" fill="#2ca02c"/>
<rect x="743.8" y="144" width="6" height="24" fill="#2ca02c"/>
<rect x="749.7" y="144" width="6" height="24" fill="#2ca02c"/>
<rect x="755.6" y="144" width="6" height="24" fill="#2ca02c"/>
<rect x="761.5" y="144" width="6" height="24" fill="#2ca02c"/>
<rect x="767.4" y="144" width="6" height="24" fill="#2ca02c"/>
<rect x="773.3" y="144" width="6" height="24" fill="#2ca02c"/>
<rect x="779.2" y="144" width="6" height="24" fill="#2ca02c"/>
<rect x="785.1" y="144" width="6" height="24" fill="#2ca02c"/>
<rect x="791.0" y="144" width="6" height="24" fill="#2ca02c"/>
<rect x="796.9" y="144" width="6" height="24" fill="#2ca02c"/>
<rect x="802.8" y="144" width="6" height="24" fill="#2ca02c"/>
<rect x="808.7" y="144" width="6" height="24" fill="#2ca02c"/>
<rect x="814.6" y="144" width="6" height="24" fill="#2ca02c"/>
<rect x="820.5" y="144" width="6" height="24" fill="#2ca02c"/>
<rect x="826.4" y="144" width="6" height="24" fill="#2ca02c"/>
<rect x="832.3" y="144" width="6" height="24" fill="#2ca02c"/>
<rect x="838.2" y="144" width="6" height="24" fill="#2ca02c"/>
<rect x="844.1" y="144" width="6" height="24" fill="#2ca02c"/>
<rect x="850.0" y="144" width="6" height="24" fill="#2ca02c"/>
<text x="40" y="206" font-family="Arial" font-size="13">stable_channel</text>
<rect x="260.0" y="186" width="6" height="24" fill="#2ca02c"/>
<rect x="265.9" y="186" width="6" height="24" fill="#2ca02c"/>
<rect x="271.8" y="186" width="6" height="24" fill="#2ca02c"/>
<rect x="277.7" y="186" width="6" height="24" fill="#2ca02c"/>
<rect x="283.6" y="186" width="6" height="24" fill="#2ca02c"/>
<rect x="289.5" y="186" width="6" height="24" fill="#2ca02c"/>
<rect x="295.4" y="186" width="6" height="24" fill="#2ca02c"/>
<rect x="301.3" y="186" width="6" height="24" fill="#2ca02c"/>
<rect x="307.2" y="186" width="6" height="24" fill="#2ca02c"/>
<rect x="313.1" y="186" width="6" height="24" fill="#2ca02c"/>
<rect x="319.0" y="186" width="6" height="24" fill="#2ca02c"/>
<rect x="324.9" y="186" width="6" height="24" fill="#2ca02c"/>
<rect x="330.8" y="186" width="6" height="24" fill="#2ca02c"/>
<rect x="336.7" y="186" width="6" height="24" fill="#2ca02c"/>
<rect x="342.6" y="186" width="6" height="24" fill="#2ca02c"/>
<rect x="348.5" y="186" width="6" height="24" fill="#2ca02c"/>
<rect x="354.4" y="186" width="6" height="24" fill="#2ca02c"/>
<rect x="360.3" y="186" width="6" height="24" fill="#2ca02c"/>
<rect x="366.2" y="186" width="6" height="24" fill="#2ca02c"/>
<rect x="372.1" y="186" width="6" height="24" fill="#2ca02c"/>
<rect x="378.0" y="186" width="6" height="24" fill="#2ca02c"/>
<rect x="383.9" y="186" width="6" height="24" fill="#2ca02c"/>
<rect x="389.8" y="186" width="6" height="24" fill="#2ca02c"/>
<rect x="395.7" y="186" width="6" height="24" fill="#2ca02c"/>
<rect x="401.6" y="186" width="6" height="24" fill="#2ca02c"/>
<rect x="407.5" y="186" width="6" height="24" fill="#2ca02c"/>
<rect x="413.4" y="186" width="6" height="24" fill="#2ca02c"/>
<rect x="419.3" y="186" width="6" height="24" fill="#2ca02c"/>
<rect x="425.2" y="186" width="6" height="24" fill="#2ca02c"/>
<rect x="431.1" y="186" width="6" height="24" fill="#2ca02c"/>
<rect x="437.0" y="186" width="6" height="24" fill="#2ca02c"/>
<rect x="442.9" y="186" width="6" height="24" fill="#2ca02c"/>
<rect x="448.8" y="186" width="6" height="24" fill="#2ca02c"/>
<rect x="454.7" y="186" width="6" height="24" fill="#2ca02c"/>
<rect x="460.6" y="186" width="6" height="24" fill="#2ca02c"/>
<rect x="466.5" y="186" width="6" height="24" fill="#2ca02c"/>
<rect x="472.4" y="186" width="6" height="24" fill="#2ca02c"/>
<rect x="478.3" y="186" width="6" height="24" fill="#2ca02c"/>
<rect x="484.2" y="186" width="6" height="24" fill="#2ca02c"/>
<rect x="490.1" y="186" width="6" height="24" fill="#2ca02c"/>
<rect x="496.0" y="186" width="6" height="24" fill="#2ca02c"/>
<rect x="501.9" y="186" width="6" height="24" fill="#2ca02c"/>
<rect x="507.8" y="186" width="6" height="24" fill="#2ca02c"/>
<rect x="513.7" y="186" width="6" height="24" fill="#2ca02c"/>
<rect x="519.6" y="186" width="6" height="24" fill="#2ca02c"/>
<rect x="525.5" y="186" width="6" height="24" fill="#2ca02c"/>
<rect x="531.4" y="186" width="6" height="24" fill="#2ca02c"/>
<rect x="537.3" y="186" width="6" height="24" fill="#2ca02c"/>
<rect x="543.2" y="186" width="6" height="24" fill="#2ca02c"/>
<rect x="549.1" y="186" width="6" height="24" fill="#2ca02c"/>
<rect x="555.0" y="186" width="6" height="24" fill="#2ca02c"/>
<rect x="560.9" y="186" width="6" height="24" fill="#2ca02c"/>
<rect x="566.8" y="186" width="6" height="24" fill="#2ca02c"/>
<rect x="572.7" y="186" width="6" height="24" fill="#2ca02c"/>
<rect x="578.6" y="186" width="6" height="24" fill="#2ca02c"/>
<rect x="584.5" y="186" width="6" height="24" fill="#2ca02c"/>
<rect x="590.4" y="186" width="6" height="24" fill="#2ca02c"/>
<rect x="596.3" y="186" width="6" height="24" fill="#2ca02c"/>
<rect x="602.2" y="186" width="6" height="24" fill="#2ca02c"/>
<rect x="608.1" y="186" width="6" height="24" fill="#2ca02c"/>
<rect x="614.0" y="186" width="6" height="24" fill="#2ca02c"/>
<rect x="619.9" y="186" width="6" height="24" fill="#2ca02c"/>
<rect x="625.8" y="186" width="6" height="24" fill="#2ca02c"/>
<rect x="631.7" y="186" width="6" height="24" fill="#2ca02c"/>
<rect x="637.6" y="186" width="6" height="24" fill="#2ca02c"/>
<rect x="643.5" y="186" width="6" height="24" fill="#2ca02c"/>
<rect x="649.4" y="186" width="6" height="24" fill="#2ca02c"/>
<rect x="655.3" y="186" width="6" height="24" fill="#2ca02c"/>
<rect x="661.2" y="186" width="6" height="24" fill="#2ca02c"/>
<rect x="667.1" y="186" width="6" height="24" fill="#2ca02c"/>
<rect x="673.0" y="186" width="6" height="24" fill="#2ca02c"/>
<rect x="678.9" y="186" width="6" height="24" fill="#2ca02c"/>
<rect x="684.8" y="186" width="6" height="24" fill="#2ca02c"/>
<rect x="690.7" y="186" width="6" height="24" fill="#2ca02c"/>
<rect x="696.6" y="186" width="6" height="24" fill="#2ca02c"/>
<rect x="702.5" y="186" width="6" height="24" fill="#2ca02c"/>
<rect x="708.4" y="186" width="6" height="24" fill="#2ca02c"/>
<rect x="714.3" y="186" width="6" height="24" fill="#2ca02c"/>
<rect x="720.2" y="186" width="6" height="24" fill="#2ca02c"/>
<rect x="726.1" y="186" width="6" height="24" fill="#2ca02c"/>
<rect x="732.0" y="186" width="6" height="24" fill="#2ca02c"/>
<rect x="737.9" y="186" width="6" height="24" fill="#2ca02c"/>
<rect x="743.8" y="186" width="6" height="24" fill="#2ca02c"/>
<rect x="749.7" y="186" width="6" height="24" fill="#2ca02c"/>
<rect x="755.6" y="186" width="6" height="24" fill="#2ca02c"/>
<rect x="761.5" y="186" width="6" height="24" fill="#2ca02c"/>
<rect x="767.4" y="186" width="6" height="24" fill="#2ca02c"/>
<rect x="773.3" y="186" width="6" height="24" fill="#2ca02c"/>
<rect x="779.2" y="186" width="6" height="24" fill="#2ca02c"/>
<rect x="785.1" y="186" width="6" height="24" fill="#2ca02c"/>
<rect x="791.0" y="186" width="6" height="24" fill="#2ca02c"/>
<rect x="796.9" y="186" width="6" height="24" fill="#2ca02c"/>
<rect x="802.8" y="186" width="6" height="24" fill="#2ca02c"/>
<rect x="808.7" y="186" width="6" height="24" fill="#2ca02c"/>
<rect x="814.6" y="186" width="6" height="24" fill="#2ca02c"/>
<rect x="820.5" y="186" width="6" height="24" fill="#2ca02c"/>
<rect x="826.4" y="186" width="6" height="24" fill="#2ca02c"/>
<rect x="832.3" y="186" width="6" height="24" fill="#2ca02c"/>
<rect x="838.2" y="186" width="6" height="24" fill="#2ca02c"/>
<rect x="844.1" y="186" width="6" height="24" fill="#2ca02c"/>
<rect x="850.0" y="186" width="6" height="24" fill="#2ca02c"/>
</svg>