<svg xmlns="http://www.w3.org/2000/svg" width="560" height="260" viewBox="0 0 560 260">
<rect x="0" y="0" width="560" height="260" fill="white"/>
<line x1="60" y1="120" x2="190" y2="60" stroke="#111" stroke-width="2" marker-end="url(#arrow)"/>
<text x="125.0" y="85.0" font-size="10" text-anchor="middle">c=1.0, m=0.75</text>
<line x1="60" y1="120" x2="190" y2="180" stroke="#111" stroke-width="2" marker-end="url(#arrow)"/>
<text x="125.0" y="145.0" font-size="10" text-anchor="middle">c=1.4, m=0.4</text>
<line x1="190" y1="60" x2="330" y2="120" stroke="#111" stroke-width="2" marker-end="url(#arrow)"/>
<text x="260.0" y="85.0" font-size="10" text-anchor="middle">c=1.1, m=0.65</text>
<line x1="190" y1="180" x2="330" y2="120" stroke="#111" stroke-width="2" marker-end="url(#arrow)"/>
<text x="260.0" y="145.0" font-size="10" text-anchor="middle">c=0.9, m=0.1</text>
<line x1="330" y1="120" x2="470" y2="80" stroke="#111" stroke-width="2" marker-end="url(#arrow)"/>
<text x="400.0" y="95.0" font-size="10" text-anchor="middle">c=1.0, m=0.55</text>
<line x1="470" y1="80" x2="190" y2="60" stroke="#111" stroke-width="2" marker-end="url(#arrow)"/>
<text x="330.0" y="65.0" font-size="10" text-anchor="middle">c=2.0, m=0.12</text>
<line x1="190" y1="180" x2="470" y2="200" stroke="#999" stroke-width="2" marker-end="url(#arrow)" stroke-dasharray="6,4"/>
<text x="330.0" y="185.0" font-size="10" text-anchor="middle">c=1.0, m=0.3</text>
<line x1="470" y1="200" x2="470" y2="80" stroke="#111" stroke-width="2" marker-end="url(#arrow)"/>
<text x="470.0" y="135.0" font-size="10" text-anchor="middle">c=1.0, m=0.25</text>
<defs><marker id="arrow" markerWidth="10" markerHeight="10" refX="8" refY="3" orient="auto"><path d="M0,0 L0,6 L9,3 z" fill="#111"/></marker></defs>
<circle cx="60" cy="120" r="18" fill="#f5f5f5" stroke="#111"/>
<text x="60" y="125" font-size="14" text-anchor="middle">A</text>
<circle cx="190" cy="60" r="18" fill="#f5f5f5" stroke="#111"/>
<text x="190" y="65" font-size="14" text-anchor="middle">B</text>
<circle cx="190" cy="180" r="18" fill="#f5f5f5" stroke="#111"/>
<text x="190" y="185" font-size="14" text-anchor="middle">C</text>
<circle cx="330" cy="120" r="18" fill="#f5f5f5" stroke="#111"/>
<text x="330" y="125" font-size="14" text-anchor="middle">D</text>
<circle cx="470" cy="80" r="18" fill="#f5f5f5" stroke="#111"/>
<text x="470" y="85" font-size="14" text-anchor="middle">E</text>
<circle cx="470" cy="200" r="18" fill="#f5f5f5" stroke="#111"/>
<text x="470" y="205" font-size="14" text-anchor="middle">F</text>
<text x="280" y="240" font-size="12" text-anchor="middle">Certified local distance graph (dashed edge is reset/non-robust)</text>
</svg>