<svg xmlns="http://www.w3.org/2000/svg" width="378" height="378" viewBox="0 0 378 378">
<rect width="100%" height="100%" fill="white"/>
<text x="136.0" y="25" font-size="12" text-anchor="middle">A</text>
<text x="35" y="67.0" font-size="12" text-anchor="middle">A</text>
<text x="180.0" y="25" font-size="12" text-anchor="middle">B</text>
<text x="35" y="111.0" font-size="12" text-anchor="middle">B</text>
<text x="224.0" y="25" font-size="12" text-anchor="middle">C</text>
<text x="35" y="155.0" font-size="12" text-anchor="middle">C</text>
<text x="268.0" y="25" font-size="12" text-anchor="middle">D</text>
<text x="35" y="199.0" font-size="12" text-anchor="middle">D</text>
<text x="312.0" y="25" font-size="12" text-anchor="middle">E</text>
<text x="35" y="243.0" font-size="12" text-anchor="middle">E</text>
<text x="356.0" y="25" font-size="12" text-anchor="middle">F</text>
<text x="35" y="287.0" font-size="12" text-anchor="middle">F</text>
<rect x="114" y="40" width="44" height="44" fill="rgb(245,245,245)" stroke="#aaa"/>
<text x="136.0" y="67.0" font-size="11" text-anchor="middle">0</text>
<rect x="158" y="40" width="44" height="44" fill="rgb(225,225,225)" stroke="#aaa"/>
<text x="180.0" y="67.0" font-size="11" text-anchor="middle">1</text>
<rect x="202" y="40" width="44" height="44" fill="rgb(225,225,225)" stroke="#aaa"/>
<text x="224.0" y="67.0" font-size="11" text-anchor="middle">1</text>
<rect x="246" y="40" width="44" height="44" fill="rgb(205,205,205)" stroke="#aaa"/>
<text x="268.0" y="67.0" font-size="11" text-anchor="middle">2</text>
<rect x="290" y="40" width="44" height="44" fill="rgb(185,185,185)" stroke="#aaa"/>
<text x="312.0" y="67.0" font-size="11" text-anchor="middle">3</text>
<rect x="334" y="40" width="44" height="44" fill="rgb(240,240,240)" stroke="#aaa"/>
<text x="356.0" y="67.0" font-size="11" text-anchor="middle">inf</text>
<rect x="114" y="84" width="44" height="44" fill="rgb(240,240,240)" stroke="#aaa"/>
<text x="136.0" y="111.0" font-size="11" text-anchor="middle">inf</text>
<rect x="158" y="84" width="44" height="44" fill="rgb(245,245,245)" stroke="#aaa"/>
<text x="180.0" y="111.0" font-size="11" text-anchor="middle">0</text>
<rect x="202" y="84" width="44" height="44" fill="rgb(240,240,240)" stroke="#aaa"/>
<text x="224.0" y="111.0" font-size="11" text-anchor="middle">inf</text>
<rect x="246" y="84" width="44" height="44" fill="rgb(225,225,225)" stroke="#aaa"/>
<text x="268.0" y="111.0" font-size="11" text-anchor="middle">1</text>
<rect x="290" y="84" width="44" height="44" fill="rgb(205,205,205)" stroke="#aaa"/>
<text x="312.0" y="111.0" font-size="11" text-anchor="middle">2</text>
<rect x="334" y="84" width="44" height="44" fill="rgb(240,240,240)" stroke="#aaa"/>
<text x="356.0" y="111.0" font-size="11" text-anchor="middle">inf</text>
<rect x="114" y="128" width="44" height="44" fill="rgb(240,240,240)" stroke="#aaa"/>
<text x="136.0" y="155.0" font-size="11" text-anchor="middle">inf</text>
<rect x="158" y="128" width="44" height="44" fill="rgb(185,185,185)" stroke="#aaa"/>
<text x="180.0" y="155.0" font-size="11" text-anchor="middle">3</text>
<rect x="202" y="128" width="44" height="44" fill="rgb(245,245,245)" stroke="#aaa"/>
<text x="224.0" y="155.0" font-size="11" text-anchor="middle">0</text>
<rect x="246" y="128" width="44" height="44" fill="rgb(225,225,225)" stroke="#aaa"/>
<text x="268.0" y="155.0" font-size="11" text-anchor="middle">1</text>
<rect x="290" y="128" width="44" height="44" fill="rgb(205,205,205)" stroke="#aaa"/>
<text x="312.0" y="155.0" font-size="11" text-anchor="middle">2</text>
<rect x="334" y="128" width="44" height="44" fill="rgb(240,240,240)" stroke="#aaa"/>
<text x="356.0" y="155.0" font-size="11" text-anchor="middle">inf</text>
<rect x="114" y="172" width="44" height="44" fill="rgb(240,240,240)" stroke="#aaa"/>
<text x="136.0" y="199.0" font-size="11" text-anchor="middle">inf</text>
<rect x="158" y="172" width="44" height="44" fill="rgb(205,205,205)" stroke="#aaa"/>
<text x="180.0" y="199.0" font-size="11" text-anchor="middle">2</text>
<rect x="202" y="172" width="44" height="44" fill="rgb(240,240,240)" stroke="#aaa"/>
<text x="224.0" y="199.0" font-size="11" text-anchor="middle">inf</text>
<rect x="246" y="172" width="44" height="44" fill="rgb(245,245,245)" stroke="#aaa"/>
<text x="268.0" y="199.0" font-size="11" text-anchor="middle">0</text>
<rect x="290" y="172" width="44" height="44" fill="rgb(225,225,225)" stroke="#aaa"/>
<text x="312.0" y="199.0" font-size="11" text-anchor="middle">1</text>
<rect x="334" y="172" width="44" height="44" fill="rgb(240,240,240)" stroke="#aaa"/>
<text x="356.0" y="199.0" font-size="11" text-anchor="middle">inf</text>
<rect x="114" y="216" width="44" height="44" fill="rgb(240,240,240)" stroke="#aaa"/>
<text x="136.0" y="243.0" font-size="11" text-anchor="middle">inf</text>
<rect x="158" y="216" width="44" height="44" fill="rgb(225,225,225)" stroke="#aaa"/>
<text x="180.0" y="243.0" font-size="11" text-anchor="middle">1</text>
<rect x="202" y="216" width="44" height="44" fill="rgb(240,240,240)" stroke="#aaa"/>
<text x="224.0" y="243.0" font-size="11" text-anchor="middle">inf</text>
<rect x="246" y="216" width="44" height="44" fill="rgb(205,205,205)" stroke="#aaa"/>
<text x="268.0" y="243.0" font-size="11" text-anchor="middle">2</text>
<rect x="290" y="216" width="44" height="44" fill="rgb(245,245,245)" stroke="#aaa"/>
<text x="312.0" y="243.0" font-size="11" text-anchor="middle">0</text>
<rect x="334" y="216" width="44" height="44" fill="rgb(240,240,240)" stroke="#aaa"/>
<text x="356.0" y="243.0" font-size="11" text-anchor="middle">inf</text>
<rect x="114" y="260" width="44" height="44" fill="rgb(240,240,240)" stroke="#aaa"/>
<text x="136.0" y="287.0" font-size="11" text-anchor="middle">inf</text>
<rect x="158" y="260" width="44" height="44" fill="rgb(205,205,205)" stroke="#aaa"/>
<text x="180.0" y="287.0" font-size="11" text-anchor="middle">2</text>
<rect x="202" y="260" width="44" height="44" fill="rgb(240,240,240)" stroke="#aaa"/>
<text x="224.0" y="287.0" font-size="11" text-anchor="middle">inf</text>
<rect x="246" y="260" width="44" height="44" fill="rgb(185,185,185)" stroke="#aaa"/>
<text x="268.0" y="287.0" font-size="11" text-anchor="middle">3</text>
<rect x="290" y="260" width="44" height="44" fill="rgb(225,225,225)" stroke="#aaa"/>
<text x="312.0" y="287.0" font-size="11" text-anchor="middle">1</text>
<rect x="334" y="260" width="44" height="44" fill="rgb(245,245,245)" stroke="#aaa"/>
<text x="356.0" y="287.0" font-size="11" text-anchor="middle">0</text>
<text x="189.0" y="368" font-size="12" text-anchor="middle">Depth distance matrix; inf means unreachable under protocol</text>
</svg>