<svg xmlns="http://www.w3.org/2000/svg" width="880" height="360" viewBox="0 0 880 360">
  <rect width="100%" height="100%" fill="white"/>
  <text x="40" y="30" font-family="Arial" font-size="18">BC-CI IV certification-cost candidates</text>
  <line x1="50" y1="310" x2="835" y2="310" stroke="black"/>
  <line x1="50" y1="50" x2="50" y2="310" stroke="black"/>
  <rect x="60" y="308.5" width="20" height="1.5" fill="#2ca02c"/><rect x="90" y="308.3" width="20" height="1.7" fill="#1f77b4"/><rect x="120" y="307.3" width="20" height="2.7" fill="#1f77b4"/><rect x="150" y="304.4" width="20" height="5.6" fill="#1f77b4"/><rect x="180" y="299.3" width="20" height="10.7" fill="#1f77b4"/><rect x="210" y="292.1" width="20" height="17.9" fill="#1f77b4"/><rect x="240" y="291.7" width="20" height="18.3" fill="#1f77b4"/><rect x="270" y="258.6" width="20" height="51.4" fill="#1f77b4"/><rect x="300" y="258.6" width="20" height="51.4" fill="#1f77b4"/><rect x="330" y="250.1" width="20" height="59.9" fill="#1f77b4"/><rect x="360" y="250.1" width="20" height="59.9" fill="#1f77b4"/><rect x="390" y="243.3" width="20" height="66.7" fill="#1f77b4"/><rect x="420" y="242.9" width="20" height="67.1" fill="#1f77b4"/><rect x="450" y="204.3" width="20" height="105.7" fill="#1f77b4"/><rect x="480" y="204.3" width="20" height="105.7" fill="#1f77b4"/><rect x="510" y="204.3" width="20" height="105.7" fill="#1f77b4"/><rect x="540" y="204.3" width="20" height="105.7" fill="#1f77b4"/><rect x="570" y="104.3" width="20" height="205.7" fill="#1f77b4"/><rect x="600" y="104.3" width="20" height="205.7" fill="#1f77b4"/><rect x="630" y="87.3" width="20" height="222.7" fill="#1f77b4"/><rect x="660" y="87.3" width="20" height="222.7" fill="#1f77b4"/><rect x="690" y="50.0" width="20" height="260.0" fill="#1f77b4"/><rect x="720" y="50.0" width="20" height="260.0" fill="#1f77b4"/><rect x="750" y="50.0" width="20" height="260.0" fill="#1f77b4"/><rect x="780" y="50.0" width="20" height="260.0" fill="#1f77b4"/>
  <text x="60" y="340" font-family="Arial" font-size="13">green: selected minimum; blue: other admissible candidates</text>
</svg>
