<svg xmlns="http://www.w3.org/2000/svg" width="720" height="240" viewBox="0 0 720 240">
<rect width="100%" height="100%" fill="white"/>
<defs><marker id="arr" markerWidth="10" markerHeight="8" refX="9" refY="4" orient="auto"><path d="M0,0 L10,4 L0,8 Z" fill="#1a7f37"/></marker></defs>
<g stroke="#1a7f37" stroke-width="3" fill="none" marker-end="url(#arr)">
<path d="M120 120 L240 120"/><path d="M300 120 L420 120"/><path d="M300 140 L420 190"/><path d="M300 100 L420 50"/>
</g>
<g font-family="Arial" font-size="16" text-anchor="middle" dominant-baseline="middle">
<rect x="40" y="88" width="80" height="64" rx="12" fill="white" stroke="#333" stroke-width="2"/><text x="80" y="120">[A]</text>
<rect x="240" y="88" width="80" height="64" rx="12" fill="white" stroke="#333" stroke-width="2"/><text x="280" y="120">[B]</text>
<rect x="440" y="18" width="80" height="64" rx="12" fill="white" stroke="#333" stroke-width="2"/><text x="480" y="50">[D]</text>
<rect x="440" y="88" width="80" height="64" rx="12" fill="white" stroke="#333" stroke-width="2"/><text x="480" y="120">[C]</text>
<rect x="440" y="158" width="80" height="64" rx="12" fill="white" stroke="#333" stroke-width="2"/><text x="480" y="190">[E]</text>
</g>
<text x="360" y="228" font-family="Arial" font-size="14" text-anchor="middle">Quotient reachability order after collapsing mutual robust components.</text>
</svg>
